<svg xmlns="http://www.w3.org/2000/svg" x="0px" y="0px" width="80" height="80" viewBox="0 0 172 172" style=" fill:#000000;">
    <g fill="none" fill-rule="nonzero" stroke="none" stroke-width="1" stroke-linecap="butt" stroke-linejoin="miter" stroke-miterlimit="10" stroke-dasharray="" stroke-dashoffset="0" font-family="none" font-weight="none" font-size="none" text-anchor="none" style="mix-blend-mode: normal">
        <path d="M0,172v-172h172v172z" fill="none"></path>
        <g fill="#47b0df">
            <path d="M34.4,22.93333c-6.33533,0 -11.46667,5.13133 -11.46667,11.46667v91.73333c0,6.33533 5.13133,11.46667 11.46667,11.46667h45.86667v-68.8c0,-12.66493 10.2684,-22.93333 22.93333,-22.93333v-11.46667c0,-6.33533 -5.13133,-11.46667 -11.46667,-11.46667zM103.2,57.33333c-6.33533,0 -11.46667,5.13133 -11.46667,11.46667v68.8c0,6.33533 5.13133,11.46667 11.46667,11.46667h34.4c6.33533,0 11.46667,-5.13133 11.46667,-11.46667v-68.8c0,-6.33533 -5.13133,-11.46667 -11.46667,-11.46667zM63.06667,114.66667c3.1648,0 5.73333,2.56853 5.73333,5.73333c0,3.1648 -2.56853,5.73333 -5.73333,5.73333c-3.1648,0 -5.73333,-2.56853 -5.73333,-5.73333c0,-3.1648 2.56853,-5.73333 5.73333,-5.73333zM120.4,126.13333c3.1648,0 5.73333,2.56853 5.73333,5.73333c0,3.1648 -2.56853,5.73333 -5.73333,5.73333c-3.1648,0 -5.73333,-2.56853 -5.73333,-5.73333c0,-3.1648 2.56853,-5.73333 5.73333,-5.73333z"></path>
        </g>
    </g>
</svg>