<?xml version="1.0" encoding="UTF-8"?>
<svg xmlns="http://www.w3.org/2000/svg" xmlns:xlink="http://www.w3.org/1999/xlink" width="50pt" height="50pt" viewBox="0 0 50 50" version="1.1">
<g id="surface611581">
<path style=" stroke:none;fill-rule:nonzero;fill:rgb(27.843137%,69.019608%,87.45098%);fill-opacity:1;" d="M 28.292969 1.324219 C 27.226562 1.117188 26.128906 1 25 1 C 20.289062 1 16.019531 2.929688 12.941406 6.039062 L 19.859375 11.632812 Z M 18.59375 13.179688 L 11.621094 7.550781 C 9.351562 10.429688 8 14.070312 8 18 C 8 20.28125 8.453125 22.488281 9.304688 24.535156 Z M 22.609375 11.433594 C 23.351562 11.160156 24.152344 11 25 11 C 28.871094 11 32 14.128906 32 18 C 32 18.339844 31.96875 18.667969 31.921875 18.992188 L 39.695312 9.492188 C 37.636719 5.953125 34.347656 3.226562 30.410156 1.898438 Z M 27.339844 24.589844 C 26.609375 24.851562 25.820312 25 25 25 C 21.128906 25 18 21.871094 18 18 C 18 17.644531 18.035156 17.300781 18.085938 16.960938 L 10.28125 26.496094 C 10.667969 27.164062 11.089844 27.8125 11.570312 28.429688 C 11.941406 28.929688 12.441406 29.570312 13.019531 30.320312 C 14.285156 31.953125 15.980469 34.136719 17.609375 36.484375 Z M 18.777344 38.214844 C 20.859375 41.398438 22.628906 44.710938 22.949219 47.269531 C 23.089844 48.261719 23.941406 49 24.941406 49 C 25.960938 49 26.808594 48.25 26.929688 47.25 C 27.539062 42.421875 33.5 34.769531 36.710938 30.648438 C 37.269531 29.929688 37.761719 29.300781 38.210938 28.710938 C 40.648438 25.691406 42 21.890625 42 18 C 42 15.679688 41.527344 13.464844 40.679688 11.445312 Z M 18.777344 38.214844 "/>
</g>
</svg>
