<svg xmlns="http://www.w3.org/2000/svg" x="0px" y="0px" width="30" height="30" viewBox="0 0 172 172" style=" fill:#000000;">
    <g fill="none" fill-rule="nonzero" stroke="none" stroke-width="1" stroke-linecap="butt" stroke-linejoin="miter" stroke-miterlimit="10" stroke-dasharray="" stroke-dashoffset="0" font-family="none" font-weight="none" font-size="none" text-anchor="none" style="mix-blend-mode: normal">
        <path d="M0,172v-172h172v172z" fill="none"></path>
        <g fill="#47b0df">
            <path d="M131.86667,17.2c-12.66573,0 -22.93333,10.2676 -22.93333,22.93333c0,12.66573 10.2676,22.93333 22.93333,22.93333c12.66573,0 22.93333,-10.2676 22.93333,-22.93333c0,-12.66573 -10.2676,-22.93333 -22.93333,-22.93333zM34.4,22.93333c-6.33533,0 -11.46667,5.13133 -11.46667,11.46667v103.2c0,6.33533 5.13133,11.46667 11.46667,11.46667h103.2c6.33533,0 11.46667,-5.13133 11.46667,-11.46667v-67.70261c-5.06253,2.92973 -10.92773,4.63594 -17.2,4.63594c-19.00027,0 -34.4,-15.39973 -34.4,-34.4c0,-6.27227 1.70621,-12.13747 4.63594,-17.2z"></path>
        </g>
    </g>
</svg>